<svg xmlns="http://www.w3.org/2000/svg" xmlns:xlink="http://www.w3.org/1999/xlink" viewBox="0 0 2738.81 1510.66"><defs><style>.cls-1{fill:none;}.cls-2{isolation:isolate;}.cls-3{clip-path:url(#clip-path);}.cls-4{fill:url(#radial-gradient);}.cls-5{opacity:0.55;}.cls-10,.cls-11,.cls-12,.cls-13,.cls-6{mix-blend-mode:multiply;}.cls-6{fill:url(#linear-gradient);}.cls-14,.cls-15,.cls-16,.cls-17,.cls-7,.cls-8,.cls-9{mix-blend-mode:overlay;}.cls-7{fill:url(#radial-gradient-2);}.cls-8{opacity:0.59;fill:url(#radial-gradient-3);}.cls-9{fill:url(#radial-gradient-4);}.cls-10{fill:url(#linear-gradient-2);}.cls-11,.cls-13{opacity:0.7;}.cls-11{fill:url(#linear-gradient-3);}.cls-12{fill:url(#linear-gradient-4);}.cls-13{fill:url(#linear-gradient-5);}.cls-14{opacity:0.42;fill:url(#linear-gradient-6);}.cls-15,.cls-16{opacity:0.64;}.cls-15{fill:url(#linear-gradient-7);}.cls-16{fill:url(#linear-gradient-8);}.cls-17{opacity:0.46;fill:url(#linear-gradient-9);}.cls-18{opacity:0.1;}.cls-19{opacity:0.27;}.cls-20{fill:url(#radial-gradient-5);}</style><clipPath id="clip-path" transform="translate(133.29 299.18)"><rect id="SVGID" class="cls-1" width="1920" height="1080"/></clipPath><radialGradient id="radial-gradient" cx="407.82" cy="198.2" r="602.78" gradientTransform="translate(132.84 299.75) scale(2.56 2.16)" gradientUnits="userSpaceOnUse"><stop offset="0" stop-color="#ff0810"/><stop offset="0.12" stop-color="#f7080f"/><stop offset="0.3" stop-color="#e0070d"/><stop offset="0.53" stop-color="#bb0509"/><stop offset="0.79" stop-color="#890205"/><stop offset="1" stop-color="#5a0000"/></radialGradient><linearGradient id="linear-gradient" x1="-190.86" y1="298.91" x2="735.03" y2="-713.78" gradientTransform="translate(2101.67 1146.09) rotate(180)" gradientUnits="userSpaceOnUse"><stop offset="0" stop-color="#fff" stop-opacity="0"/><stop offset="0.21" stop-color="#decad1" stop-opacity="0.26"/><stop offset="0.58" stop-color="#ac7a8c" stop-opacity="0.66"/><stop offset="0.85" stop-color="#8d4960" stop-opacity="0.91"/><stop offset="1" stop-color="#813650"/></linearGradient><radialGradient id="radial-gradient-2" cx="140.66" cy="391.55" r="316.49" gradientTransform="translate(-289.02 143.27) scale(2.74 2.35)" gradientUnits="userSpaceOnUse"><stop offset="0" stop-color="#fff"/><stop offset="0.1" stop-color="#fff" stop-opacity="0.82"/><stop offset="0.23" stop-color="#fff" stop-opacity="0.61"/><stop offset="0.37" stop-color="#fff" stop-opacity="0.42"/><stop offset="0.5" stop-color="#fff" stop-opacity="0.27"/><stop offset="0.63" stop-color="#fff" stop-opacity="0.15"/><stop offset="0.76" stop-color="#fff" stop-opacity="0.07"/><stop offset="0.88" stop-color="#fff" stop-opacity="0.02"/><stop offset="1" stop-color="#fff" stop-opacity="0"/></radialGradient><radialGradient id="radial-gradient-3" cx="1514.38" cy="672.99" r="314.8" gradientTransform="translate(6029.55 2747.18) rotate(180) scale(2.74 2.35)" xlink:href="#radial-gradient-2"/><radialGradient id="radial-gradient-4" cx="1714.56" cy="1049.86" r="339.41" gradientTransform="translate(6029.55 2747.18) rotate(180) scale(2.74 2.35)" xlink:href="#radial-gradient-2"/><linearGradient id="linear-gradient-2" x1="967.82" y1="129.26" x2="2072.75" y2="-1079.26" gradientTransform="translate(110.12 385.43)" xlink:href="#linear-gradient"/><linearGradient id="linear-gradient-3" x1="458.97" y1="188.95" x2="376.13" y2="-59.57" gradientTransform="translate(13.59 299.18)" xlink:href="#linear-gradient"/><linearGradient id="linear-gradient-4" x1="1304.43" y1="471.85" x2="2128.38" y2="-429.34" gradientTransform="matrix(1.24, 0.27, 0.27, 1.14, -294.25, -1.16)" xlink:href="#linear-gradient"/><linearGradient id="linear-gradient-5" x1="1225.04" y1="374.22" x2="2051.74" y2="-529.99" gradientTransform="translate(1931.24 1245.58) rotate(180)" xlink:href="#linear-gradient"/><linearGradient id="linear-gradient-6" x1="1513.47" y1="307.37" x2="1845.56" y2="-55.86" gradientTransform="translate(217.28 286.48)" xlink:href="#linear-gradient"/><linearGradient id="linear-gradient-7" x1="902.32" y1="497.21" x2="1567.88" y2="-230.75" gradientTransform="translate(202.17 91.07)" xlink:href="#linear-gradient"/><linearGradient id="linear-gradient-8" x1="836.29" y1="1041.4" x2="1501.85" y2="313.44" gradientTransform="translate(1975.2 2132.06) rotate(180)" xlink:href="#linear-gradient"/><linearGradient id="linear-gradient-9" x1="1661.31" y1="1184.5" x2="2325.45" y2="458.1" gradientTransform="translate(2158.71 1855.38) rotate(180)" xlink:href="#linear-gradient"/><radialGradient id="radial-gradient-5" cx="407.82" cy="198.2" r="602.78" gradientTransform="translate(132.84 299.75) scale(2.56 2.16)" gradientUnits="userSpaceOnUse"><stop offset="0" stop-color="#ff0810"/><stop offset="0.04" stop-color="#f5080f"/><stop offset="0.28" stop-color="#be050a"/><stop offset="0.51" stop-color="#930306"/><stop offset="0.71" stop-color="#740103"/><stop offset="0.88" stop-color="#610001"/><stop offset="1" stop-color="#5a0000"/></radialGradient></defs><g class="cls-2"><g id="Layer_2" data-name="Layer 2"><g id="Layer_1-2" data-name="Layer 1"><g class="cls-3"><rect class="cls-4" x="133.29" y="299.18" width="1920" height="1080"/><g class="cls-5"><polygon class="cls-6" points="2074.67 1461.89 2074.67 845.21 1386.36 1461.89 2074.67 1461.89"/><polygon class="cls-7" points="1194.66 1475.79 1453.64 1243.76 899.95 793 137.87 1475.79 1194.66 1475.79"/><polygon class="cls-8" points="1436.04 168.28 524.34 985.11 1078.03 1435.86 2273.4 364.88 2031.9 168.28 1436.04 168.28"/><polygon class="cls-9" points="559.9 168.28 129.4 530.21 414.35 753.01 1077.23 168.28 559.9 168.28"/><polygon class="cls-10" points="826.78 163.89 589.39 372.32 1206.09 876.24 2017.39 163.89 826.78 163.89"/><polygon class="cls-11" points="502.43 168.28 110.79 508.53 110.79 938.65 903.84 246.13 809.12 168.28 502.43 168.28"/><polygon class="cls-12" points="1874.91 168.28 1119.31 803.89 1552.01 1120.22 2068.61 685.65 2068.61 168.28 1874.91 168.28"/><polygon class="cls-13" points="532.92 526.04 0 1000.81 0 1475.79 650.73 1475.79 1139.78 1040.1 532.92 526.04"/><polygon class="cls-14" points="1669.28 629.09 1657.19 618.05 2092.22 230.49 2104.31 241.52 1669.28 629.09"/><polygon class="cls-15" points="1521.89 168.28 977.71 655.66 993.46 670.03 1553.68 168.28 1521.89 168.28"/><polygon class="cls-16" points="721.51 1510.66 1265.69 1023.28 1249.95 1008.91 689.73 1510.66 721.51 1510.66"/><polygon class="cls-17" points="0 1167.08 626.48 605.99 610.73 591.62 0 1138.61 0 1167.08"/></g></g><g class="cls-18"><g class="cls-3"><image width="4592" height="2584" transform="translate(133.29) scale(0.57)" xlink:href="C:%5CUsers%5Cyongk%5CDownloads%5CDesign%20Landing%20Page%20Beasiswa%5Ctwo-girls-black-gowns-standing-look-up-sky-with-happy-graduates.jpg"/></g></g><g class="cls-19"><g class="cls-3"><rect class="cls-20" x="133.29" y="299.18" width="1920" height="1080"/><g class="cls-5"><polygon class="cls-6" points="2074.67 1461.89 2074.67 845.21 1386.36 1461.89 2074.67 1461.89"/><polygon class="cls-7" points="1194.66 1475.79 1453.64 1243.76 899.95 793 137.87 1475.79 1194.66 1475.79"/><polygon class="cls-8" points="1436.04 168.28 524.34 985.11 1078.03 1435.86 2273.4 364.88 2031.9 168.28 1436.04 168.28"/><polygon class="cls-9" points="559.9 168.28 129.4 530.21 414.35 753.01 1077.23 168.28 559.9 168.28"/><polygon class="cls-10" points="826.78 163.89 589.39 372.32 1206.09 876.24 2017.39 163.89 826.78 163.89"/><polygon class="cls-11" points="502.43 168.28 110.79 508.53 110.79 938.65 903.84 246.13 809.12 168.28 502.43 168.28"/><polygon class="cls-12" points="1874.91 168.28 1119.31 803.89 1552.01 1120.22 2068.61 685.65 2068.61 168.28 1874.91 168.28"/><polygon class="cls-13" points="532.92 526.04 0 1000.81 0 1475.79 650.73 1475.79 1139.78 1040.1 532.92 526.04"/><polygon class="cls-14" points="1669.28 629.09 1657.19 618.05 2092.22 230.49 2104.31 241.52 1669.28 629.09"/><polygon class="cls-15" points="1521.89 168.28 977.71 655.66 993.46 670.03 1553.68 168.28 1521.89 168.28"/><polygon class="cls-16" points="721.51 1510.66 1265.69 1023.28 1249.95 1008.91 689.73 1510.66 721.51 1510.66"/><polygon class="cls-17" points="0 1167.08 626.48 605.99 610.73 591.62 0 1138.61 0 1167.08"/></g></g></g></g></g></g></svg>