<svg width="610" height="238" viewBox="0 0 610 238" fill="none" xmlns="http://www.w3.org/2000/svg">
<g clip-path="url(#clip0_20_41)">
<path d="M361.4 101.15C370.931 96.7942 373.624 87.9645 371.813 79.5631C371.204 76.9617 370.033 74.5248 368.382 72.4231C368.906 72.2089 369.311 71.9947 369.74 71.8519C374.506 70.2573 379.271 68.6389 384.227 67.0919C418.42 56.3978 453.394 48.3768 488.833 43.1015C505.513 40.6025 522.049 38.0797 538.872 36.2471C552.359 34.7715 565.869 33.6291 579.38 33.3197C581.763 33.3197 584.145 33.1293 586.528 33.0341C586.426 32.9308 586.303 32.85 586.168 32.7967C586.032 32.7434 585.887 32.7189 585.742 32.7247C575.019 32.3677 564.297 32.2249 553.574 32.5581C536.561 33.0817 519.595 34.2955 502.677 36.1995C491.502 37.4609 480.35 38.9841 469.318 40.5073C454.91 42.4747 440.565 44.8547 426.284 47.6473C403.207 52.2007 380.38 57.9442 357.897 64.8547L355.515 65.5925C363.688 68.1391 366.571 69.7336 367.834 72.3278L346.531 80.1581C348.055 80.1531 349.576 80.2645 351.083 80.4912C351.588 80.5865 352.069 80.7835 352.496 81.0705C352.923 81.3575 353.287 81.7283 353.566 82.1603C353.844 82.5924 354.032 83.0766 354.117 83.5834C354.202 84.0903 354.183 84.6092 354.061 85.1084C353.905 85.9522 353.524 86.7383 352.958 87.3835C352.392 88.0287 351.661 88.509 350.844 88.7736C346.856 90.2391 342.592 90.808 338.358 90.4396C338.89 86.8911 340.809 83.6983 343.696 81.5623C335.451 84.5373 327.469 88.0596 319.058 91.701C320.747 85.4987 323.892 79.7877 328.231 75.0411C326.373 75.5647 324.681 76.2548 322.942 76.826C321.288 77.6 319.542 78.1599 317.747 78.492L320.13 66.1161C317.621 65.6605 315.044 65.7545 312.576 66.3914C310.107 67.0284 307.807 68.1931 305.833 69.8051C303.369 71.8145 301.265 74.2292 299.614 76.9451C299.376 77.3259 299.042 77.659 298.518 78.3254L299.256 67.3061H282.124C281.981 68.2343 281.838 69.0673 281.767 69.9003C280.909 77.9447 280.075 85.989 278.454 93.9144C278.371 94.6022 278.371 95.2973 278.454 95.9851C278.822 95.6606 279.221 95.3736 279.646 95.1283C291.449 89.5273 303.45 84.3707 315.65 79.6583C316.127 79.4679 316.603 79.3726 317.39 79.1346L316.222 85.1084H313.72C311.132 84.9847 308.558 85.566 306.275 86.7901C303.992 88.0142 302.085 89.8351 300.758 92.058C298.947 94.9456 297.657 98.1272 296.945 101.459C296.905 101.735 296.905 102.016 296.945 102.292C300.638 100.483 304.093 98.722 307.739 97.0323C311.385 95.3425 314.745 93.6051 318.462 92.1533C318.104 94.6999 317.652 96.9133 317.509 99.2933C317.317 101.669 317.317 104.057 317.509 106.433C318.629 118.333 325.658 125.164 336.571 126.806C343.602 127.784 350.756 127.387 357.635 125.64C360.248 125.075 362.779 124.179 365.165 122.974L364.069 108.694L361.829 109.551C356.462 111.685 350.649 112.454 344.911 111.788C342.794 111.571 340.772 110.799 339.049 109.551C338.329 109.083 337.735 108.445 337.32 107.694C336.904 106.943 336.68 106.101 336.667 105.243C340.312 105.053 343.815 104.981 347.294 104.696C352.169 104.354 356.944 103.153 361.4 101.15V101.15Z" fill="white"/>
<path d="M278.597 95.9377L278.574 95.9614L278.597 95.9377H278.621H278.597Z" fill="white"/>
<path d="M467.173 65.212C463.629 65.0407 460.093 65.6807 456.835 67.0831C453.576 68.4856 450.682 70.6134 448.373 73.304L447.277 74.5654L446.943 74.3512L447.563 66.5686H430.43L419.612 125.616H439.39C439.523 125.299 439.635 124.973 439.723 124.641C441.185 116.882 442.638 109.131 444.084 101.388C444.726 97.0575 445.919 92.8266 447.634 88.7978C448.485 86.6619 449.813 84.7488 451.518 83.2048C452.596 82.3518 453.813 81.6915 455.116 81.2532C455.746 81.0087 456.438 80.9764 457.087 81.1611C457.737 81.3459 458.308 81.7376 458.714 82.2766C459.4 83.2156 459.805 84.3298 459.882 85.4896C459.946 87.7686 459.787 90.0485 459.405 92.2964C457.499 102.887 455.45 113.455 453.472 124.022C453.44 124.529 453.44 125.038 453.472 125.545H473.202C473.369 124.855 473.535 124.307 473.631 123.736C475.68 112.907 477.777 102.102 479.754 91.2492C480.707 86.7781 481.02 82.1945 480.684 77.6356C480.639 75.9257 480.25 74.2422 479.542 72.6849C478.833 71.1277 477.819 69.7283 476.559 68.5697C475.299 67.4112 473.819 66.517 472.207 65.9403C470.595 65.3635 468.883 65.1159 467.173 65.212Z" fill="white"/>
<path d="M142.087 67.806C141.944 68.401 141.777 68.877 141.705 69.3768C140.49 75.9218 139.323 82.4668 138.06 88.988C137.25 93.2006 136.463 97.4608 135.296 101.578C134.509 103.93 133.437 106.176 132.103 108.266C131.184 109.93 129.695 111.206 127.909 111.86C127.301 112.175 126.625 112.333 125.94 112.32C125.256 112.306 124.586 112.122 123.991 111.784C123.397 111.445 122.896 110.964 122.536 110.382C122.175 109.801 121.966 109.139 121.928 108.456C121.866 107.935 121.866 107.407 121.928 106.886C122.095 105.077 122.166 103.22 122.5 101.435C124.406 90.9872 126.384 80.539 128.338 70.0908C128.457 69.4006 128.528 68.7104 128.624 67.9488H108.823C108.823 68.282 108.656 68.5438 108.608 68.7818C106.44 80.3248 104.2 91.844 102.127 103.411C101.225 107.764 101.064 112.237 101.65 116.644C101.87 119.248 102.911 121.715 104.624 123.691C106.337 125.667 108.633 127.049 111.182 127.639C114.223 128.341 117.385 128.341 120.427 127.639C125.336 126.454 129.751 123.766 133.056 119.952L134.319 118.619L134.605 118.833L133.985 126.854H151.141L162.031 67.7346L142.087 67.806Z" fill="white"/>
<path d="M409.58 93.4146C408.824 92.7858 408.028 92.2056 407.198 91.6772C405.506 90.6538 403.766 89.7256 402.098 88.6546C400.788 87.904 399.565 87.0099 398.453 85.989C398.123 85.6616 397.873 85.2629 397.723 84.8236C397.573 84.3844 397.526 83.9165 397.586 83.4562C397.646 82.9958 397.811 82.5555 398.069 82.1693C398.326 81.783 398.67 81.4613 399.072 81.229C399.966 80.6764 400.963 80.312 402.003 80.158C405.893 79.6776 409.841 80.143 413.512 81.5146L415.299 82.0858L419.66 68.2342C418.301 67.7344 417.277 67.2108 415.966 66.9252C408.767 65.0201 401.196 65.0201 393.997 66.9252C389.619 68.0251 385.644 70.3444 382.535 73.613C380.767 75.3337 379.403 77.425 378.542 79.7361C377.681 82.0471 377.344 84.5203 377.556 86.9771C377.768 89.4339 378.524 91.813 379.768 93.9429C381.012 96.0727 382.714 97.9001 384.751 99.2932C385.217 99.6603 385.702 100.002 386.205 100.317C387.682 101.197 389.183 102.006 390.637 102.911C392.011 103.693 393.305 104.61 394.497 105.648C395.098 106.079 395.554 106.682 395.806 107.377C396.058 108.072 396.093 108.827 395.908 109.543C395.722 110.258 395.324 110.901 394.766 111.387C394.208 111.872 393.516 112.178 392.781 112.264C390.844 112.653 388.858 112.733 386.896 112.502C382.916 112.007 379.045 110.866 375.435 109.123L370.669 123.022C372.623 123.831 374.338 124.712 376.149 125.235C384 127.563 392.349 127.638 400.24 125.449C404.367 124.432 408.135 122.299 411.129 119.285C413.031 117.334 414.477 114.986 415.363 112.41C416.249 109.833 416.553 107.094 416.252 104.386C415.99 102.188 415.258 100.07 414.107 98.1778C412.956 96.2852 411.413 94.6609 409.58 93.4146V93.4146Z" fill="white"/>
<path d="M585.123 94.3429C582.526 92.0066 579.644 90.0074 576.545 88.3929C575.032 87.6088 573.617 86.6503 572.328 85.5369C571.903 85.1904 571.576 84.739 571.38 84.2275C571.184 83.716 571.125 83.1621 571.209 82.6209C571.294 82.0796 571.518 81.5698 571.861 81.142C572.203 80.7141 572.652 80.3832 573.162 80.1819C573.902 79.7735 574.708 79.4995 575.544 79.3727C576.793 79.2147 578.052 79.159 579.309 79.2061C582.588 79.3676 585.814 80.1006 588.84 81.3719L593.32 67.4489C591.867 66.9253 590.532 66.3779 589.15 65.9971C584.64 64.8941 579.984 64.5085 575.354 64.8547C571.581 64.9965 567.862 65.8022 564.369 67.2347C560.015 68.8674 556.328 71.8978 553.885 75.8503C550.025 82.4191 549.333 91.3917 557.554 97.7701C559.27 99.1029 561.152 100.15 562.987 101.34C564.321 102.197 565.727 102.935 567.014 103.839C567.716 104.325 568.329 104.929 568.825 105.624C569.188 106.057 569.44 106.572 569.559 107.124C569.678 107.676 569.66 108.249 569.508 108.793C569.355 109.337 569.072 109.835 568.683 110.245C568.295 110.655 567.812 110.964 567.276 111.146C566.237 111.566 565.132 111.799 564.012 111.836C559.702 111.867 555.433 111 551.478 109.289L549.095 108.385L544.568 121.879C546.2 123.087 548.054 123.96 550.024 124.45C556.921 126.443 564.2 126.729 571.232 125.283C575.82 124.549 580.125 122.592 583.694 119.618C586.131 117.553 587.987 114.888 589.078 111.887C590.168 108.886 590.456 105.653 589.913 102.506C589.323 99.3087 587.628 96.4195 585.123 94.3429V94.3429Z" fill="white"/>
<path d="M182.38 112.86C181.383 113.204 180.338 113.388 179.283 113.407C175.04 113.41 170.841 112.552 166.94 110.884L164.414 109.932L159.648 123.76C161.626 124.569 163.342 125.426 165.129 125.997C171.053 127.75 177.284 128.22 183.405 127.378C187.43 126.971 191.338 125.791 194.914 123.903C197.205 122.751 199.234 121.141 200.874 119.171C202.514 117.201 203.73 114.915 204.445 112.455C205.588 109.352 205.693 105.963 204.743 102.796C203.794 99.6292 201.841 96.8552 199.179 94.8906C196.963 93.1532 194.414 91.7252 192.031 90.1306C190.863 89.369 189.648 88.774 188.48 87.9648C187.313 87.1556 185.883 85.8228 186.36 83.895C186.836 81.9672 188.433 81.3246 190.172 80.8724C190.433 80.836 190.698 80.836 190.959 80.8724C193.202 80.8364 195.445 80.9238 197.678 81.1342C199.843 81.5464 201.983 82.0788 204.088 82.7288L208.711 69.02C207.233 68.4964 205.947 67.9728 204.636 67.6158C199.484 66.3219 194.138 65.9751 188.862 66.5924C184.097 66.9775 179.504 68.5396 175.494 71.1382C171.494 73.6322 168.571 77.528 167.297 82.0624C166.303 84.8979 166.194 87.9683 166.985 90.8669C167.777 93.7655 169.431 96.3556 171.729 98.294C173.819 100.018 176.015 101.608 178.306 103.054C179.569 103.887 180.927 104.577 182.19 105.434C182.903 105.903 183.538 106.482 184.072 107.148C184.447 107.601 184.704 108.14 184.821 108.716C184.939 109.293 184.913 109.889 184.746 110.453C184.579 111.016 184.276 111.531 183.863 111.95C183.451 112.37 182.942 112.682 182.38 112.86V112.86Z" fill="white"/>
<path d="M216.836 149.94C214.787 149.94 212.737 149.94 210.688 149.94C208.567 150.038 206.442 149.998 204.326 149.821C204.684 147.917 205.017 146.179 205.351 144.466C205.684 142.752 205.97 140.991 206.256 139.254C186.912 153.191 169.963 170.175 156.074 189.543C156.345 189.639 156.624 189.711 156.908 189.757H185.716C186.074 189.768 186.427 189.68 186.738 189.504C187.049 189.328 187.305 189.069 187.48 188.758C188.608 187.171 189.775 185.584 190.982 183.998C200.08 172.321 210.339 161.596 221.602 151.987C222.221 151.463 222.793 150.892 223.389 150.344L223.222 150.011L216.836 149.94Z" fill="white"/>
<path d="M329.495 74.3511L354.061 66.0449C349.604 65.4879 345.079 65.9459 340.824 67.3844C336.57 68.8229 332.697 71.2046 329.495 74.3511V74.3511Z" fill="white"/>
<path d="M269.615 99.9597C269.734 99.2457 269.781 98.8887 269.853 98.5079C270.944 93.6613 271.25 88.6714 270.758 83.7281C270.433 80.007 269.224 76.4171 267.232 73.2561C265.886 71.1228 264.033 69.3548 261.838 68.1091C259.643 66.8635 257.174 66.1788 254.651 66.1161C251.411 65.8921 248.163 66.4201 245.162 67.6588C242.161 68.8975 239.488 70.8133 237.351 73.2561L235.779 74.9221L236.47 67.4013H218.956C215.954 91.2013 210.521 114.525 206.685 138.254C226.359 123.79 247.246 111.049 269.114 100.174C269.142 100.459 269.142 100.746 269.114 101.031C267.851 105.572 265.847 109.874 263.181 113.764C260.003 118.665 255.5 122.568 250.195 125.021C246.965 126.564 243.453 127.43 239.875 127.565C236.297 127.7 232.73 127.102 229.393 125.806C229.148 125.771 228.899 125.771 228.654 125.806L224.246 149.202C240.128 136.378 256.986 124.808 274.666 114.597L272.45 126.14H292.418L296.85 102.34C289.178 106.1 282.148 110.122 275 114.097C274.977 113.891 274.977 113.684 275 113.478C276.064 107.766 277.128 102.062 278.193 96.3659C278.193 96.1755 278.503 96.0327 278.669 95.8661C277.859 96.067 277.063 96.3214 276.286 96.6277C274.023 97.5797 271.974 98.7459 269.615 99.9597ZM250.076 92.4627C249.74 97.5643 248.143 102.503 245.429 106.838C244.459 108.394 243.262 109.798 241.879 111.003C240.427 112.3 238.529 112.984 236.583 112.913C234.637 112.842 232.795 112.021 231.442 110.622C232.49 105.005 233.444 99.4123 234.563 93.9621C235.115 91.2584 236.236 88.7028 237.852 86.4651C238.98 84.7084 240.654 83.3704 242.617 82.6571C243.294 82.3349 244.036 82.1705 244.786 82.1761C245.536 82.1817 246.275 82.3573 246.947 82.6895C247.619 83.0218 248.207 83.5021 248.667 84.0943C249.126 84.6864 249.445 85.375 249.599 86.1081C250.08 88.1656 250.241 90.2849 250.076 92.3913V92.4627Z" fill="white"/>
<path d="M89.2595 49.0991C85.9285 47.464 82.3274 46.4478 78.6321 46.1003C69.3332 45.238 59.9597 45.6625 50.777 47.3617C50.2916 47.3849 49.8322 47.5879 49.4885 47.9311C49.1449 48.2744 48.9416 48.7332 48.9185 49.2181C48.4657 51.9075 47.9177 54.5969 47.4173 57.2863L34.6454 125.116C34.6454 125.735 34.4786 126.378 34.3833 127.139H53.7794L59.0692 99.5313C60.1415 99.5313 61.047 99.5313 61.9524 99.5313C66.2535 99.7633 70.5668 99.4676 74.7958 98.6507C80.0843 97.746 85.1011 95.6636 89.4739 92.5579C93.2981 89.8063 96.3854 86.1567 98.4632 81.9313C100.541 77.7059 101.546 73.0345 101.388 68.3295C101.524 64.2802 100.441 60.2831 98.2788 56.8549C96.1167 53.4268 92.9749 50.7251 89.2595 49.0991V49.0991ZM67.5997 83.5853C65.8364 83.5853 64.0732 83.4425 62.0716 83.3473L66.0985 62.1415C66.2892 61.9749 66.3606 61.8321 66.4798 61.8083C69.5837 61.0848 72.8198 61.1503 75.8919 61.9987C77.3656 62.3881 78.6762 63.2378 79.6321 64.4239C80.5881 65.6099 81.1394 67.0701 81.2056 68.5913C81.4069 70.4911 81.2043 72.4119 80.611 74.228C80.0177 76.0441 79.0471 77.7146 77.7626 79.1301C76.4782 80.5456 74.9089 81.6741 73.1576 82.4419C71.4062 83.2097 69.5123 83.5993 67.5997 83.5853V83.5853Z" fill="white"/>
<path d="M546.592 68.0679C546.379 67.9396 546.156 67.8282 545.925 67.7347C536.266 64.7612 526.031 64.1651 516.092 65.9973C511.044 66.9024 506.25 68.8822 502.036 71.802C497.821 74.7218 494.285 78.5134 491.668 82.9191C488.557 88.089 486.568 93.8541 485.83 99.8409C485.07 104.362 485.216 108.99 486.259 113.455C489.929 127.33 503.296 129.115 511.994 123.974C514.849 122.229 517.289 119.881 519.142 117.096C519.452 116.644 519.786 116.239 520.119 115.787L520.453 115.906L520.119 125.236H537.966C537.966 124.426 537.966 123.855 537.966 123.26C538.081 115.824 538.774 108.408 540.039 101.079C541.993 90.7731 544.114 80.4915 546.163 70.1385C546.425 69.4245 546.497 68.7343 546.592 68.0679ZM523.121 86.6557C522.216 90.9159 521.406 95.2237 520.31 99.4363C519.688 101.635 518.809 103.752 517.689 105.743C516.94 107.117 515.928 108.33 514.71 109.313C514.085 109.91 513.314 110.332 512.474 110.538C511.634 110.743 510.755 110.724 509.925 110.483C509.095 110.242 508.342 109.787 507.744 109.164C507.145 108.541 506.721 107.772 506.513 106.933C505.757 104.425 505.626 101.769 506.132 99.1983C506.73 94.6545 508.36 90.3073 510.898 86.4891C512.082 84.7696 513.493 83.2166 515.091 81.8719C516.362 80.812 517.887 80.101 519.517 79.8089C521.146 79.5167 522.824 79.6536 524.384 80.2059C523.979 82.3479 523.574 84.5137 523.121 86.6557V86.6557Z" fill="white"/>
<path d="M251.386 137.231C253.351 136.812 255.357 136.613 257.367 136.636C259.501 136.523 261.621 137.036 263.467 138.111C264.248 138.654 264.877 139.387 265.294 140.241C265.711 141.095 265.902 142.041 265.85 142.99C265.873 144.226 265.607 145.451 265.073 146.566C264.54 147.682 263.753 148.658 262.776 149.416C260.631 150.917 258.054 151.677 255.437 151.582C254.627 151.582 253.936 151.582 253.435 151.463L251.91 159.722H247.145L251.386 137.231ZM254.293 147.56C254.921 147.682 255.56 147.738 256.199 147.726C256.79 147.775 257.384 147.704 257.947 147.518C258.509 147.332 259.028 147.035 259.473 146.644C259.918 146.253 260.28 145.776 260.536 145.242C260.792 144.709 260.938 144.129 260.965 143.538C260.965 141.372 259.345 140.658 257.486 140.658C256.816 140.653 256.147 140.7 255.484 140.801L254.293 147.56Z" fill="white"/>
<path d="M283.864 142.99L281.815 154.2C281.41 156.318 281.148 158.103 280.957 159.603H276.644L276.93 156.913C276.295 157.845 275.448 158.614 274.458 159.156C273.468 159.698 272.364 159.998 271.235 160.031C268.543 160.031 266.946 158.556 266.922 155.39C266.93 154.366 267.042 153.345 267.256 152.344L268.995 143.062H273.88L272.212 151.963C272.074 152.693 271.994 153.434 271.974 154.176C271.974 155.224 272.427 156.08 273.642 156.08C275.31 156.08 277.002 154.057 277.645 150.773L279.075 143.062L283.864 142.99Z" fill="white"/>
<path d="M285.532 155.2C286.873 155.879 288.343 156.268 289.845 156.342C291.251 156.342 291.942 155.652 291.942 154.843C291.942 154.033 291.394 153.462 289.869 152.701C288.921 152.379 288.086 151.794 287.461 151.014C286.836 150.234 286.448 149.291 286.342 148.298C286.342 144.823 289.344 142.538 293.633 142.538C295.108 142.48 296.577 142.765 297.922 143.371L296.755 146.846C295.711 146.388 294.583 146.153 293.443 146.156C292.108 146.156 291.274 146.703 291.274 147.631C291.274 148.559 291.965 148.893 293.3 149.535C295.135 150.44 297.041 151.772 297.065 154.081C297.065 157.889 293.848 159.96 289.44 159.96C287.664 160.009 285.909 159.573 284.364 158.698L285.532 155.2Z" fill="white"/>
<path d="M310.003 159.46C310.003 158.484 310.122 157.342 310.193 156.176C309.701 157.254 308.915 158.172 307.925 158.824C306.934 159.477 305.78 159.837 304.594 159.865C303.871 159.856 303.157 159.696 302.5 159.394C301.843 159.092 301.257 158.655 300.78 158.112C300.304 157.568 299.947 156.93 299.734 156.24C299.52 155.55 299.455 154.822 299.542 154.105C299.483 152.538 299.753 150.977 300.334 149.52C300.915 148.064 301.795 146.745 302.917 145.649C304.04 144.553 305.379 143.703 306.85 143.155C308.32 142.607 309.89 142.373 311.456 142.467C313.319 142.466 315.172 142.731 316.961 143.252L315.269 151.963C314.788 154.433 314.541 156.943 314.53 159.46H310.003ZM311.337 146.322C310.898 146.233 310.451 146.185 310.003 146.18C306.834 146.18 304.546 150.083 304.57 153.153C304.57 154.771 305.237 155.89 306.595 155.89C307.954 155.89 309.86 154.2 310.622 150.13L311.337 146.322Z" fill="white"/>
<path d="M327.35 138.301L326.444 142.799H330.019L329.28 146.536H325.753L324.657 152.177C324.508 152.874 324.42 153.582 324.395 154.295C324.395 155.104 324.753 155.675 325.825 155.675C326.269 155.71 326.715 155.71 327.159 155.675L326.683 159.459C325.745 159.727 324.774 159.855 323.799 159.84C320.845 159.84 319.439 158.365 319.439 156.246C319.446 155.205 319.566 154.168 319.796 153.152L321.035 146.56H318.938L319.606 142.823H321.75L322.346 139.705L327.35 138.301Z" fill="white"/>
<path d="M340.503 136.874C342.469 136.456 344.474 136.256 346.484 136.279C348.618 136.166 350.738 136.679 352.584 137.755C353.365 138.297 353.994 139.03 354.411 139.884C354.828 140.738 355.019 141.685 354.967 142.634C354.99 143.87 354.724 145.094 354.191 146.21C353.657 147.325 352.87 148.301 351.893 149.06C349.748 150.56 347.171 151.32 344.554 151.225C343.744 151.225 343.053 151.225 342.552 151.106L341.123 159.46H336.357L340.503 136.874ZM343.41 147.084C344.038 147.206 344.677 147.262 345.316 147.251C345.907 147.299 346.501 147.228 347.064 147.042C347.626 146.856 348.146 146.559 348.59 146.168C349.035 145.777 349.397 145.3 349.653 144.767C349.909 144.233 350.055 143.653 350.082 143.062C350.082 140.896 348.462 140.182 346.603 140.182C345.933 140.177 345.264 140.225 344.601 140.325L343.41 147.084Z" fill="white"/>
<path d="M355.039 159.317L356.874 149.416C357.35 146.894 357.541 144.109 357.708 142.681H361.949C361.949 143.8 361.782 144.918 361.663 146.084C362.108 145.024 362.837 144.108 363.771 143.436C364.704 142.764 365.806 142.363 366.953 142.276H367.882L366.953 147.036H366.167C363.045 147.036 361.592 149.845 360.996 153.105L359.876 159.293L355.039 159.317Z" fill="white"/>
<path d="M381.535 158.246C379.59 159.159 377.465 159.623 375.316 159.603C374.364 159.709 373.4 159.603 372.494 159.291C371.588 158.979 370.763 158.469 370.078 157.799C369.394 157.13 368.867 156.316 368.537 155.418C368.206 154.519 368.08 153.559 368.167 152.606C368.064 149.972 369.009 147.405 370.795 145.465C372.581 143.525 375.063 142.37 377.699 142.253C378.422 142.137 379.162 142.177 379.869 142.371C380.575 142.565 381.232 142.909 381.794 143.378C382.357 143.847 382.812 144.431 383.129 145.091C383.446 145.751 383.617 146.471 383.632 147.203C383.632 151.416 379.533 152.963 372.838 152.82C372.88 153.419 373.068 153.999 373.386 154.51C373.781 154.957 374.275 155.307 374.83 155.53C375.384 155.753 375.983 155.844 376.579 155.795C378.23 155.819 379.863 155.452 381.344 154.724L381.535 158.246ZM377.174 145.799C376.224 145.843 375.318 146.209 374.603 146.836C373.889 147.463 373.409 148.314 373.243 149.25C377.079 149.25 378.985 148.75 378.985 147.179C378.866 146.37 378.294 145.799 377.151 145.799H377.174Z" fill="white"/>
<path d="M385.253 154.7C386.594 155.38 388.064 155.769 389.566 155.842C390.972 155.842 391.663 155.152 391.663 154.343C391.663 153.533 391.115 152.962 389.59 152.201C388.65 151.895 387.816 151.331 387.184 150.573C386.552 149.815 386.146 148.894 386.015 147.917C386.015 144.442 389.018 142.157 393.307 142.157C394.782 142.099 396.25 142.384 397.596 142.99L396.428 146.465C395.384 146.007 394.256 145.772 393.116 145.775C391.782 145.775 390.948 146.322 390.948 147.25C390.948 148.178 391.639 148.512 392.973 149.154C394.808 150.059 396.714 151.391 396.738 153.7C396.738 157.508 393.521 159.579 389.113 159.579C387.338 159.628 385.583 159.192 384.038 158.317L385.253 154.7Z" fill="white"/>
<path d="M408.128 138.04L407.294 142.514H410.868L410.13 146.251H406.603L405.507 151.891C405.359 152.581 405.271 153.281 405.245 153.986C405.245 154.795 405.602 155.366 406.675 155.366C407.119 155.401 407.565 155.401 408.009 155.366L407.461 159.103C406.524 159.37 405.552 159.498 404.578 159.484C401.623 159.484 400.217 158.008 400.217 155.89C400.225 154.849 400.344 153.811 400.575 152.796L401.814 146.203H399.717L400.384 142.467H402.528L403.124 139.349L408.128 138.04Z" fill="white"/>
<path d="M421.471 159.031C421.471 158.055 421.59 156.913 421.661 155.747C421.168 156.84 420.372 157.77 419.367 158.428C418.363 159.086 417.191 159.443 415.99 159.46C415.267 159.451 414.554 159.291 413.897 158.989C413.239 158.687 412.653 158.25 412.177 157.707C411.7 157.163 411.344 156.525 411.13 155.835C410.917 155.145 410.852 154.417 410.939 153.7C410.879 152.133 411.149 150.572 411.73 149.115C412.312 147.659 413.192 146.34 414.314 145.244C415.436 144.148 416.776 143.298 418.246 142.75C419.717 142.202 421.286 141.968 422.853 142.062C424.716 142.061 426.569 142.325 428.357 142.847L426.522 151.558C426.075 154.024 425.86 156.526 425.879 159.031H421.471ZM422.805 145.894C422.366 145.804 421.919 145.756 421.471 145.751C418.302 145.751 416.014 149.654 416.038 152.724C416.038 154.343 416.705 155.461 418.063 155.461C419.422 155.461 421.328 153.771 422.09 149.702L422.805 145.894Z" fill="white"/>
<path d="M429.978 154.7C431.319 155.38 432.789 155.769 434.291 155.843C435.697 155.843 436.388 155.152 436.388 154.343C436.388 153.534 435.84 152.963 434.315 152.201C433.368 151.88 432.532 151.294 431.908 150.514C431.283 149.734 430.894 148.792 430.788 147.798C430.788 144.323 433.791 142.039 438.08 142.039C439.555 141.981 441.023 142.266 442.369 142.872L441.201 146.346C440.157 145.889 439.029 145.654 437.889 145.656C436.555 145.656 435.721 146.204 435.721 147.132C435.721 148.06 436.412 148.393 437.746 149.036C439.581 149.94 441.487 151.273 441.511 153.582C441.511 157.39 438.294 159.46 433.886 159.46C432.111 159.509 430.356 159.073 428.811 158.199L429.978 154.7Z" fill="white"/>
<path d="M443.536 158.96L446.633 142.3H451.542L448.444 158.96H443.536ZM449.659 140.253C449.027 140.253 448.421 140.002 447.975 139.556C447.528 139.11 447.277 138.504 447.277 137.873C447.273 137.505 447.344 137.139 447.484 136.798C447.625 136.457 447.832 136.148 448.094 135.888C448.357 135.629 448.668 135.424 449.01 135.287C449.353 135.15 449.719 135.082 450.088 135.089C450.72 135.089 451.326 135.339 451.773 135.786C452.22 136.232 452.471 136.837 452.471 137.469C452.478 137.843 452.408 138.215 452.264 138.562C452.12 138.908 451.906 139.22 451.635 139.48C451.364 139.739 451.042 139.94 450.69 140.069C450.338 140.198 449.962 140.252 449.588 140.229L449.659 140.253Z" fill="white"/>
<path d="M459.024 158.888L463.289 135.969H469.032L472.082 144.68C473.011 147.607 473.631 149.963 474.179 152.486C474.33 149.721 474.673 146.97 475.203 144.251L476.728 135.921H481.327L477.062 158.817H471.986L468.746 149.702C467.803 147.091 467.007 144.429 466.363 141.729V141.729C466.125 143.966 465.6 147.226 464.933 150.844L463.432 158.865L459.024 158.888Z" fill="white"/>
<path d="M492.383 158.77C492.383 157.794 492.502 156.675 492.574 155.485C492.082 156.564 491.295 157.482 490.305 158.134C489.315 158.786 488.16 159.147 486.974 159.174C486.251 159.166 485.538 159.006 484.88 158.704C484.223 158.402 483.637 157.965 483.161 157.421C482.684 156.878 482.327 156.24 482.114 155.55C481.901 154.86 481.836 154.132 481.923 153.415C481.863 151.848 482.133 150.286 482.714 148.83C483.296 147.374 484.176 146.055 485.298 144.959C486.42 143.863 487.759 143.013 489.23 142.465C490.701 141.917 492.27 141.682 493.837 141.777C495.7 141.775 497.553 142.04 499.341 142.562L497.649 151.273C497.202 153.738 496.987 156.24 497.006 158.746L492.383 158.77ZM493.718 145.632C493.278 145.543 492.832 145.495 492.383 145.489C489.214 145.489 486.927 149.393 486.95 152.463C486.95 154.081 487.618 155.2 488.976 155.2C490.334 155.2 492.24 153.534 493.003 149.44L493.718 145.632Z" fill="white"/>
<path d="M500.891 154.343C502.232 155.023 503.702 155.412 505.204 155.485C506.61 155.485 507.301 154.795 507.301 153.986C507.301 153.177 506.753 152.605 505.228 151.844C504.301 151.528 503.483 150.959 502.864 150.202C502.245 149.444 501.85 148.529 501.725 147.56C501.725 144.085 504.727 141.8 509.016 141.8C510.491 141.742 511.959 142.028 513.305 142.633L512.138 146.108C511.094 145.65 509.966 145.415 508.826 145.418C507.491 145.418 506.657 145.965 506.657 146.893C506.657 147.822 507.348 148.155 508.683 148.797C510.517 149.702 512.424 151.035 512.447 153.343C512.447 157.151 509.231 159.222 504.822 159.222C503.047 159.271 501.292 158.835 499.747 157.96L500.891 154.343Z" fill="white"/>
<path d="M514.449 158.675L517.546 142.015H522.455L519.357 158.675H514.449ZM520.573 139.968C519.941 139.968 519.335 139.717 518.888 139.271C518.441 138.824 518.19 138.219 518.19 137.588C518.187 137.219 518.257 136.854 518.398 136.513C518.538 136.172 518.746 135.863 519.008 135.603C519.27 135.344 519.581 135.139 519.924 135.002C520.266 134.864 520.633 134.797 521.001 134.803C521.633 134.803 522.24 135.054 522.686 135.5C523.133 135.947 523.384 136.552 523.384 137.183C523.392 137.558 523.321 137.93 523.177 138.276C523.033 138.622 522.819 138.935 522.548 139.194C522.277 139.454 521.956 139.654 521.603 139.783C521.251 139.912 520.876 139.967 520.501 139.944L520.573 139.968Z" fill="white"/>
<path d="M540.897 148.417C540.985 149.769 540.795 151.125 540.338 152.401C539.881 153.677 539.167 154.846 538.241 155.836C537.314 156.826 536.195 157.617 534.951 158.158C533.707 158.699 532.365 158.98 531.009 158.984C530.072 159.063 529.13 158.941 528.244 158.627C527.359 158.313 526.551 157.814 525.874 157.163C525.197 156.512 524.668 155.724 524.32 154.852C523.973 153.979 523.816 153.043 523.86 152.106C523.783 150.757 523.98 149.406 524.441 148.136C524.902 146.866 525.617 145.703 526.541 144.717C527.466 143.731 528.582 142.943 529.821 142.4C531.06 141.858 532.396 141.573 533.749 141.562C534.682 141.488 535.621 141.611 536.503 141.926C537.385 142.24 538.19 142.737 538.866 143.385C539.541 144.032 540.071 144.816 540.422 145.683C540.772 146.551 540.934 147.482 540.897 148.417V148.417ZM528.983 152.034C528.983 153.962 529.96 155.247 531.676 155.247C534.297 155.247 535.798 151.297 535.798 148.464C535.798 146.941 535.107 145.299 533.177 145.323C530.437 145.323 528.983 149.44 528.983 152.034Z" fill="white"/>
<path d="M542.447 158.555L544.52 147.345C544.949 145.227 545.187 143.442 545.425 141.943H549.738L549.452 144.704C550.087 143.756 550.94 142.975 551.939 142.424C552.938 141.873 554.054 141.57 555.195 141.538C555.79 141.495 556.388 141.584 556.944 141.799C557.501 142.014 558.002 142.351 558.413 142.783C558.823 143.216 559.132 143.735 559.318 144.301C559.503 144.868 559.56 145.469 559.484 146.06C559.461 146.993 559.373 147.924 559.222 148.845L557.578 158.508H552.645L554.385 149.297C554.493 148.692 554.549 148.079 554.552 147.464C554.552 146.274 554.146 145.465 552.884 145.465C551.621 145.465 549.428 147.488 548.761 151.153L547.403 158.531L542.447 158.555Z" fill="white"/>
<path d="M572.542 158.436C572.542 157.461 572.661 156.318 572.732 155.152C572.239 156.234 571.449 157.154 570.454 157.807C569.459 158.459 568.299 158.818 567.109 158.841C566.386 158.833 565.672 158.672 565.015 158.37C564.358 158.068 563.772 157.631 563.295 157.088C562.819 156.544 562.462 155.907 562.249 155.216C562.036 154.526 561.97 153.799 562.057 153.081C561.998 151.515 562.268 149.953 562.849 148.497C563.43 147.04 564.31 145.721 565.433 144.625C566.555 143.529 567.894 142.68 569.365 142.132C570.835 141.583 572.405 141.349 573.972 141.443C575.834 141.443 577.688 141.707 579.476 142.229L577.784 150.939C577.337 153.405 577.121 155.907 577.141 158.413L572.542 158.436ZM573.876 145.299C573.437 145.209 572.99 145.162 572.542 145.156C569.492 145.18 567.109 149.059 567.109 152.153C567.109 153.772 567.776 154.89 569.134 154.89C570.493 154.89 572.399 153.2 573.161 149.131L573.876 145.299Z" fill="white"/>
<path d="M580.476 158.413L585.003 134.28H589.888L585.361 158.413H580.476Z" fill="white"/>
</g>
<defs>
<clipPath id="clip0_20_41">
<rect width="610" height="238" fill="white"/>
</clipPath>
</defs>
</svg>
